<svg xmlns="http://www.w3.org/2000/svg" xmlns:xlink="http://www.w3.org/1999/xlink" width="500" zoomAndPan="magnify" viewBox="0 0 375 74.999997" height="100" preserveAspectRatio="xMidYMid meet" version="1.2"><defs><clipPath id="910a6481b8"><rect x="0" width="362" y="0" height="70"/></clipPath></defs><g id="caff72b2ab"><g transform="matrix(1,0,0,1,5,5)"><g clip-path="url(#910a6481b8)"><g style="fill:#ffffff;fill-opacity:1;"><g transform="translate(1.274735, 58.594936)"><path style="stroke:none" d="M 6.140625 -4.09375 C 3.035156 -7.476562 1.484375 -11.625 1.484375 -16.53125 C 1.484375 -21.445312 3.035156 -25.609375 6.140625 -29.015625 C 9.242188 -32.421875 13.1875 -34.125 17.96875 -34.125 C 22.363281 -34.125 25.984375 -32.742188 28.828125 -29.984375 L 28.828125 -55.578125 L 40.265625 -55.578125 L 40.265625 0 L 28.953125 0 L 28.953125 -3.75 L 28.828125 -3.75 C 25.984375 -0.601562 22.363281 0.96875 17.96875 0.96875 C 13.1875 0.96875 9.242188 -0.71875 6.140625 -4.09375 Z M 15.859375 -22.15625 C 14.378906 -20.695312 13.640625 -18.828125 13.640625 -16.546875 C 13.640625 -14.265625 14.347656 -12.398438 15.765625 -10.953125 C 17.191406 -9.503906 19.066406 -8.78125 21.390625 -8.78125 C 23.628906 -8.78125 25.46875 -9.515625 26.90625 -10.984375 C 28.351562 -12.453125 29.078125 -14.304688 29.078125 -16.546875 C 29.078125 -18.828125 28.332031 -20.695312 26.84375 -22.15625 C 25.363281 -23.625 23.546875 -24.359375 21.390625 -24.359375 C 19.191406 -24.359375 17.347656 -23.625 15.859375 -22.15625 Z M 15.859375 -22.15625 "/></g></g><g style="fill:#ffffff;fill-opacity:1;"><g transform="translate(40.365745, 58.594936)"><path style="stroke:none" d="M 37.421875 -15 L 13.375 -15 C 13.375 -12.664062 14.128906 -10.9375 15.640625 -9.8125 C 17.148438 -8.695312 18.785156 -8.140625 20.546875 -8.140625 C 22.398438 -8.140625 23.863281 -8.382812 24.9375 -8.875 C 26.019531 -9.375 27.25 -10.359375 28.625 -11.828125 L 36.90625 -7.6875 C 33.457031 -1.914062 27.722656 0.96875 19.703125 0.96875 C 14.710938 0.96875 10.425781 -0.742188 6.84375 -4.171875 C 3.269531 -7.597656 1.484375 -11.722656 1.484375 -16.546875 C 1.484375 -21.367188 3.269531 -25.503906 6.84375 -28.953125 C 10.425781 -32.398438 14.710938 -34.125 19.703125 -34.125 C 24.960938 -34.125 29.238281 -32.601562 32.53125 -29.5625 C 35.832031 -26.53125 37.484375 -22.191406 37.484375 -16.546875 C 37.484375 -15.765625 37.460938 -15.25 37.421875 -15 Z M 13.703125 -21.328125 L 26.296875 -21.328125 C 26.046875 -23.046875 25.367188 -24.367188 24.265625 -25.296875 C 23.171875 -26.222656 21.757812 -26.6875 20.03125 -26.6875 C 18.132812 -26.6875 16.625 -26.191406 15.5 -25.203125 C 14.382812 -24.210938 13.785156 -22.921875 13.703125 -21.328125 Z M 13.703125 -21.328125 "/></g></g><g style="fill:#ffffff;fill-opacity:1;"><g transform="translate(74.287566, 58.594936)"><path style="stroke:none" d="M 12.28125 -33.15625 L 20.359375 -15.125 L 28.4375 -33.15625 L 42 -33.15625 L 24.234375 0 L 16.484375 0 L -1.296875 -33.15625 Z M 12.28125 -33.15625 "/></g></g><g style="fill:#ffffff;fill-opacity:1;"><g transform="translate(109.953991, 58.594936)"><path style="stroke:none" d="M 21.515625 -24.75 C 19.359375 -24.75 17.503906 -23.953125 15.953125 -22.359375 C 14.410156 -20.765625 13.640625 -18.847656 13.640625 -16.609375 C 13.640625 -14.328125 14.410156 -12.390625 15.953125 -10.796875 C 17.503906 -9.203125 19.359375 -8.40625 21.515625 -8.40625 C 22.554688 -8.40625 23.535156 -8.53125 24.453125 -8.78125 C 25.378906 -9.039062 26.0625 -9.300781 26.5 -9.5625 L 27.078125 -9.953125 L 30.953125 -2 C 30.648438 -1.789062 30.226562 -1.519531 29.6875 -1.1875 C 29.15625 -0.863281 27.929688 -0.425781 26.015625 0.125 C 24.097656 0.6875 22.039062 0.96875 19.84375 0.96875 C 14.96875 0.96875 10.6875 -0.742188 7 -4.171875 C 3.320312 -7.597656 1.484375 -11.703125 1.484375 -16.484375 C 1.484375 -21.304688 3.320312 -25.453125 7 -28.921875 C 10.6875 -32.390625 14.96875 -34.125 19.84375 -34.125 C 22.039062 -34.125 24.0625 -33.863281 25.90625 -33.34375 C 27.757812 -32.832031 29.078125 -32.316406 29.859375 -31.796875 L 30.953125 -31.015625 L 27.078125 -23.203125 C 25.648438 -24.234375 23.796875 -24.75 21.515625 -24.75 Z M 21.515625 -24.75 "/></g></g><g style="fill:#ffffff;fill-opacity:1;"><g transform="translate(136.638946, 58.594936)"><path style="stroke:none" d="M 3.875 0 L 3.875 -55.578125 L 15.3125 -55.578125 L 15.3125 -29.65625 L 15.453125 -29.65625 C 18.421875 -32.632812 21.582031 -34.125 24.9375 -34.125 C 26.582031 -34.125 28.210938 -33.90625 29.828125 -33.46875 C 31.441406 -33.039062 32.988281 -32.375 34.46875 -31.46875 C 35.957031 -30.5625 37.164062 -29.28125 38.09375 -27.625 C 39.019531 -25.96875 39.484375 -24.039062 39.484375 -21.84375 L 39.484375 0 L 28.046875 0 L 28.046875 -18.734375 C 28.046875 -20.460938 27.492188 -21.972656 26.390625 -23.265625 C 25.296875 -24.554688 23.867188 -25.203125 22.109375 -25.203125 C 20.378906 -25.203125 18.8125 -24.535156 17.40625 -23.203125 C 16.007812 -21.867188 15.3125 -20.378906 15.3125 -18.734375 L 15.3125 0 Z M 3.875 0 "/></g></g><g style="fill:#ffffff;fill-opacity:1;"><g transform="translate(174.308424, 58.594936)"><path style="stroke:none" d="M 6.140625 -4.09375 C 3.035156 -7.476562 1.484375 -11.625 1.484375 -16.53125 C 1.484375 -21.445312 3.035156 -25.609375 6.140625 -29.015625 C 9.242188 -32.421875 13.1875 -34.125 17.96875 -34.125 C 22.363281 -34.125 25.984375 -32.742188 28.828125 -29.984375 L 28.828125 -33.15625 L 40.265625 -33.15625 L 40.265625 0 L 28.953125 0 L 28.953125 -3.75 L 28.828125 -3.75 C 25.984375 -0.601562 22.363281 0.96875 17.96875 0.96875 C 13.1875 0.96875 9.242188 -0.71875 6.140625 -4.09375 Z M 15.859375 -22.15625 C 14.378906 -20.695312 13.640625 -18.828125 13.640625 -16.546875 C 13.640625 -14.265625 14.347656 -12.398438 15.765625 -10.953125 C 17.191406 -9.503906 19.066406 -8.78125 21.390625 -8.78125 C 23.628906 -8.78125 25.46875 -9.515625 26.90625 -10.984375 C 28.351562 -12.453125 29.078125 -14.304688 29.078125 -16.546875 C 29.078125 -18.828125 28.332031 -20.695312 26.84375 -22.15625 C 25.363281 -23.625 23.546875 -24.359375 21.390625 -24.359375 C 19.191406 -24.359375 17.347656 -23.625 15.859375 -22.15625 Z M 15.859375 -22.15625 "/></g></g><g style="fill:#ffffff;fill-opacity:1;"><g transform="translate(213.399435, 58.594936)"><path style="stroke:none" d="M 3.875 0 L 3.875 -33.15625 L 15.3125 -33.15625 L 15.3125 -29.65625 L 15.453125 -29.65625 C 18.421875 -32.632812 21.582031 -34.125 24.9375 -34.125 C 26.582031 -34.125 28.210938 -33.90625 29.828125 -33.46875 C 31.441406 -33.039062 32.988281 -32.375 34.46875 -31.46875 C 35.957031 -30.5625 37.164062 -29.28125 38.09375 -27.625 C 39.019531 -25.96875 39.484375 -24.039062 39.484375 -21.84375 L 39.484375 0 L 28.046875 0 L 28.046875 -18.734375 C 28.046875 -20.460938 27.492188 -21.972656 26.390625 -23.265625 C 25.296875 -24.554688 23.867188 -25.203125 22.109375 -25.203125 C 20.378906 -25.203125 18.8125 -24.535156 17.40625 -23.203125 C 16.007812 -21.867188 15.3125 -20.378906 15.3125 -18.734375 L 15.3125 0 Z M 3.875 0 "/></g></g><g style="fill:#ffffff;fill-opacity:1;"><g transform="translate(251.068914, 58.594936)"><path style="stroke:none" d="M 38 -29.015625 C 41.101562 -25.609375 42.65625 -21.445312 42.65625 -16.53125 C 42.65625 -11.625 41.101562 -7.476562 38 -4.09375 C 34.894531 -0.71875 30.953125 0.96875 26.171875 0.96875 C 21.773438 0.96875 18.15625 -0.601562 15.3125 -3.75 L 15.1875 -3.75 L 15.1875 0 L 3.875 0 L 3.875 -55.578125 L 15.3125 -55.578125 L 15.3125 -29.984375 C 18.15625 -32.742188 21.773438 -34.125 26.171875 -34.125 C 30.953125 -34.125 34.894531 -32.421875 38 -29.015625 Z M 28.359375 -10.953125 C 29.785156 -12.398438 30.5 -14.265625 30.5 -16.546875 C 30.5 -18.828125 29.753906 -20.695312 28.265625 -22.15625 C 26.785156 -23.625 24.945312 -24.359375 22.75 -24.359375 C 20.59375 -24.359375 18.769531 -23.625 17.28125 -22.15625 C 15.800781 -20.695312 15.0625 -18.828125 15.0625 -16.546875 C 15.0625 -14.304688 15.78125 -12.453125 17.21875 -10.984375 C 18.664062 -9.515625 20.507812 -8.78125 22.75 -8.78125 C 25.070312 -8.78125 26.941406 -9.503906 28.359375 -10.953125 Z M 28.359375 -10.953125 "/></g></g><g style="fill:#ffffff;fill-opacity:1;"><g transform="translate(290.159924, 58.594936)"><path style="stroke:none" d="M 4.96875 -51.625 C 6.3125 -52.96875 7.90625 -53.640625 9.75 -53.640625 C 11.601562 -53.640625 13.195312 -52.96875 14.53125 -51.625 C 15.875 -50.289062 16.546875 -48.695312 16.546875 -46.84375 C 16.546875 -45 15.875 -43.40625 14.53125 -42.0625 C 13.195312 -40.726562 11.601562 -40.0625 9.75 -40.0625 C 7.90625 -40.0625 6.3125 -40.726562 4.96875 -42.0625 C 3.632812 -43.40625 2.96875 -45 2.96875 -46.84375 C 2.96875 -48.695312 3.632812 -50.289062 4.96875 -51.625 Z M 3.875 -33.15625 L 3.875 0 L 15.3125 0 L 15.3125 -33.15625 Z M 3.875 -33.15625 "/></g></g><g style="fill:#ffffff;fill-opacity:1;"><g transform="translate(304.632676, 58.594936)"><path style="stroke:none" d="M 3.875 0 L 3.875 -33.15625 L 15.3125 -33.15625 L 15.3125 -29.65625 L 15.453125 -29.65625 C 18.421875 -32.632812 21.582031 -34.125 24.9375 -34.125 C 26.582031 -34.125 28.210938 -33.90625 29.828125 -33.46875 C 31.441406 -33.039062 32.988281 -32.375 34.46875 -31.46875 C 35.957031 -30.5625 37.164062 -29.28125 38.09375 -27.625 C 39.019531 -25.96875 39.484375 -24.039062 39.484375 -21.84375 L 39.484375 0 L 28.046875 0 L 28.046875 -18.734375 C 28.046875 -20.460938 27.492188 -21.972656 26.390625 -23.265625 C 25.296875 -24.554688 23.867188 -25.203125 22.109375 -25.203125 C 20.378906 -25.203125 18.8125 -24.535156 17.40625 -23.203125 C 16.007812 -21.867188 15.3125 -20.378906 15.3125 -18.734375 L 15.3125 0 Z M 3.875 0 "/></g></g><g style="fill:#ffffff;fill-opacity:1;"><g transform="translate(342.30213, 58.594936)"><path style="stroke:none" d="M 11.25 -13.828125 C 13.3125 -13.828125 15.0625 -13.101562 16.5 -11.65625 C 17.945312 -10.21875 18.671875 -8.460938 18.671875 -6.390625 C 18.671875 -4.367188 17.945312 -2.632812 16.5 -1.1875 C 15.0625 0.25 13.3125 0.96875 11.25 0.96875 C 9.21875 0.96875 7.476562 0.25 6.03125 -1.1875 C 4.59375 -2.632812 3.875 -4.367188 3.875 -6.390625 C 3.875 -8.460938 4.59375 -10.21875 6.03125 -11.65625 C 7.476562 -13.101562 9.21875 -13.828125 11.25 -13.828125 Z M 11.25 -13.828125 "/></g></g></g></g></g></svg>