<svg xmlns="http://www.w3.org/2000/svg" xmlns:xlink="http://www.w3.org/1999/xlink" width="100" zoomAndPan="magnify" viewBox="0 0 75 74.999997" height="100" preserveAspectRatio="xMidYMid meet" version="1.2"><defs/><g id="bc712f21f9"><g style="fill:#000000;fill-opacity:1;"><g transform="translate(0.499374, 56.799984)"><path style="stroke:none" d="M 5.3125 -3.546875 C 2.625 -6.484375 1.28125 -10.078125 1.28125 -14.328125 C 1.28125 -18.585938 2.625 -22.191406 5.3125 -25.140625 C 8.007812 -28.085938 11.425781 -29.5625 15.5625 -29.5625 C 19.375 -29.5625 22.507812 -28.367188 24.96875 -25.984375 L 24.96875 -48.15625 L 34.890625 -48.15625 L 34.890625 0 L 25.09375 0 L 25.09375 -3.25 L 24.96875 -3.25 C 22.507812 -0.519531 19.375 0.84375 15.5625 0.84375 C 11.425781 0.84375 8.007812 -0.617188 5.3125 -3.546875 Z M 13.75 -19.203125 C 12.457031 -17.929688 11.8125 -16.304688 11.8125 -14.328125 C 11.8125 -12.359375 12.425781 -10.742188 13.65625 -9.484375 C 14.894531 -8.234375 16.519531 -7.609375 18.53125 -7.609375 C 20.476562 -7.609375 22.078125 -8.242188 23.328125 -9.515625 C 24.578125 -10.785156 25.203125 -12.394531 25.203125 -14.34375 C 25.203125 -16.3125 24.554688 -17.929688 23.265625 -19.203125 C 21.984375 -20.472656 20.40625 -21.109375 18.53125 -21.109375 C 16.632812 -21.109375 15.039062 -20.472656 13.75 -19.203125 Z M 13.75 -19.203125 "/></g></g><g style="fill:#000000;fill-opacity:1;"><g transform="translate(34.374031, 56.799984)"><path style="stroke:none" d="M 18.640625 -21.453125 C 16.773438 -21.453125 15.171875 -20.757812 13.828125 -19.375 C 12.484375 -17.988281 11.8125 -16.328125 11.8125 -14.390625 C 11.8125 -12.410156 12.484375 -10.726562 13.828125 -9.34375 C 15.171875 -7.96875 16.773438 -7.28125 18.640625 -7.28125 C 19.535156 -7.28125 20.382812 -7.390625 21.1875 -7.609375 C 22 -7.835938 22.585938 -8.0625 22.953125 -8.28125 L 23.46875 -8.625 L 26.828125 -1.734375 C 26.566406 -1.546875 26.203125 -1.3125 25.734375 -1.03125 C 25.265625 -0.75 24.195312 -0.367188 22.53125 0.109375 C 20.875 0.597656 19.09375 0.84375 17.1875 0.84375 C 12.96875 0.84375 9.257812 -0.640625 6.0625 -3.609375 C 2.875 -6.578125 1.28125 -10.132812 1.28125 -14.28125 C 1.28125 -18.457031 2.875 -22.046875 6.0625 -25.046875 C 9.257812 -28.054688 12.96875 -29.5625 17.1875 -29.5625 C 19.09375 -29.5625 20.847656 -29.335938 22.453125 -28.890625 C 24.054688 -28.441406 25.195312 -27.992188 25.875 -27.546875 L 26.828125 -26.875 L 23.46875 -20.109375 C 22.226562 -21.003906 20.617188 -21.453125 18.640625 -21.453125 Z M 18.640625 -21.453125 "/></g></g><g style="fill:#000000;fill-opacity:1;"><g transform="translate(57.49819, 56.799984)"><path style="stroke:none" d="M 9.75 -11.984375 C 11.539062 -11.984375 13.0625 -11.359375 14.3125 -10.109375 C 15.5625 -8.859375 16.1875 -7.335938 16.1875 -5.546875 C 16.1875 -3.785156 15.5625 -2.28125 14.3125 -1.03125 C 13.0625 0.21875 11.539062 0.84375 9.75 0.84375 C 7.988281 0.84375 6.484375 0.21875 5.234375 -1.03125 C 3.984375 -2.28125 3.359375 -3.785156 3.359375 -5.546875 C 3.359375 -7.335938 3.984375 -8.859375 5.234375 -10.109375 C 6.484375 -11.359375 7.988281 -11.984375 9.75 -11.984375 Z M 9.75 -11.984375 "/></g></g></g></svg>